# xmcd
#
# Track frame offsets:
#	150
#	14878
#	29345
#	40628
#	53170
#	68783
#	83670
#	94018
#	107528
#	120783
#
# Disc length: 1793 seconds
#
# Revision: 3
# Processed by: cddbd v1.5.1PL0 Copyright (c) Steve Scherf et al.
# Submitted via: dBpowerAMP V4.0
#
DISCID=7106ff0a
DTITLE=GeorgeJones,AKAPossum,Beaumont,TX - Who'sGonnaFillTheirShoes;Epic7464-39598-2
DYEAR=1985
DGENRE=Country
TTITLE0=Who'sGonnaFillTheirShoes(TroySeals&MaxDBarnes;1985,GeorgeJones,AKAPossum,Beaumont,TX)
TTITLE1=JustWhen(1985,GeorgeJones,AKAPossum,Beaumont,TX)
TTITLE2=OneILovedBackThen,The{TheCorvetteSong}(1985,GeorgeJones,AKAPossum,Beaumont,TX)
TTITLE3=IfIPaintedAPicture(1985,GeorgeJones,AKAPossum,Beaumont,TX)
TTITLE4=IfYouCanTouchHerAtAll(1985,GeorgeJones,AKAPossum,Beaumont,TX&LynnAnderson~duet)
TTITLE5=SomebodyWantsMeOutOfTheWay(1985,GeorgeJones,AKAPossum,Beaumont,TX)
TTITLE6=WholeLotOfTroubleForYou,A(1985,GeorgeJones,AKAPossum,Beaumont,TX)
TTITLE7=IfOnlyYou'dLoveMeAgain(1985,GeorgeJones,AKAPossum,Beaumont,TX)
TTITLE8=CallTheWreckerForMyHeart(1985,GeorgeJones,AKAPossum,Beaumont,TX)
TTITLE9=That'sGood~That'sBad(1985,GeorgeJones,AKAPossum,Beaumont,TX&LacyJDalton~duet)
EXTD=more info\nMillenniumMusicProjectFormat, syntax as follows:\nTitle{Subtitle}[info](Lyricist;Composer;Date,Artist,Location)[info]\ncorrections to: windking3@yahoo.com
EXTT0=
EXTT1=
EXTT2=
EXTT3=
EXTT4=
EXTT5=
EXTT6=
EXTT7=
EXTT8=
EXTT9=
PLAYORDER=
